<?xml version="1.0" standalone="yes"?>
<svg width="198" height="198">
<path style="fill:#efefef; stroke:none;" d="M0 0L0 198L198 198L198 0L0 0z"/>
<path style="fill:#3d3d3d; stroke:none;" d="M55 72L55 73L142 73L115 72L55 72z"/>
<path style="fill:#141414; stroke:none;" d="M53.1335 74.0278C46.0276 78.1165 46.192 106.205 54.0941 109.397C59.7877 111.696 68.9159 110 75 110L122 110C128.25 110 139.266 112.098 144.786 108.821C151.852 104.626 151.943 76.7446 143.956 73.6034C138.187 71.3345 129.143 73 123 73L76 73C69.7933 73 58.6297 70.8652 53.1335 74.0278z"/>
<path style="fill:#f0f0f0; stroke:none;" d="M133 78L136 79L136 81L125 81L126 76L120 78C121.619 81.2747 121.171 86.8032 123.066 89.3966C125.243 92.3745 136.723 92.084 138.397 88.6821C140.163 85.0922 139 78.9299 139 75L133 78z"/>
<path style="fill:#333333; stroke:none;" d="M139 75L139 89L140 89L139 75z"/>
<path style="fill:#858585; stroke:none;" d="M134 76L135 77L134 76z"/>
<path style="fill:#5c5c5c; stroke:none;" d="M49.3333 77.6667L49.6667 78.3333L49.3333 77.6667z"/>
<path style="fill:#5e5e5e; stroke:none;" d="M75.6667 78.3333L76.3333 78.6667L75.6667 78.3333z"/>
<path style="fill:#b7b7b7; stroke:none;" d="M90 78L90 79L102 79L90 78z"/>
<path style="fill:#efefef; stroke:none;" d="M89 79L89 80L100 80L88 91L109 91L101 86L104 78L89 79z"/>
<path style="fill:#7e7e7e; stroke:none;" d="M104.333 78.6667L104.667 79.3333L104.333 78.6667z"/>
<path style="fill:#cbcbcb; stroke:none;" d="M57 82L58 82L74 80C70.4438 77.9511 58.0193 77.2431 57 82z"/>
<path style="fill:#eeeeee; stroke:none;" d="M58 80L58 82L73 82L73 87L58 87L58 90L73 90L73 94L75 94L77 79L58 80z"/>
<path style="fill:#585858; stroke:none;" d="M77.3333 79.6667L77.6667 80.3333L77.3333 79.6667z"/>
<path style="fill:#787878; stroke:none;" d="M120 79L121 80L120 79z"/>
<path style="fill:#b6b6b6; stroke:none;" d="M125.333 79.6667L125.667 80.3333L125.333 79.6667z"/>
<path style="fill:#565656; stroke:none;" d="M135.333 79.6667L135.667 80.3333L135.333 79.6667z"/>
<path style="fill:#8d8d8d; stroke:none;" d="M140 79L140 82L141 82L140 79z"/>
<path style="fill:#b3b3b3; stroke:none;" d="M90 80L90 81L100 81L90 80z"/>
<path style="fill:#d6d6d6; stroke:none;" d="M48 81L48 102L49 102L48 81z"/>
<path style="fill:#444444; stroke:none;" d="M126 81L126 82L130 82L126 81z"/>
<path style="fill:#575757; stroke:none;" d="M132 81L132 82L135 82L132 81z"/>
<path style="fill:#626262; stroke:none;" d="M58 82L58 83L63 83L63 84L60 84L60 85L67 83L58 82z"/>
<path style="fill:#444444; stroke:none;" d="M72 82L72 86L68 86L68 87L73 87L72 82z"/>
<path style="fill:#a5a5a5; stroke:none;" d="M76 82L76 85L77 85L76 82z"/>
<path style="fill:#ababab; stroke:none;" d="M92 82L92 83L95 83L92 82z"/>
<path style="fill:#bebebe; stroke:none;" d="M122 82L122 86L123 86L122 82z"/>
<path style="fill:#ededed; stroke:none;" d="M59 83L59 84L63 84L59 83z"/>
<path style="fill:#656565; stroke:none;" d="M101 84L103 87L101 84z"/>
<path style="fill:#a2a2a2; stroke:none;" d="M103 84L103 86L105 84L103 84z"/>
<path style="fill:#5e5e5e; stroke:none;" d="M126 84L126 85L135 88L136 88L136 84L126 84z"/>
<path style="fill:#5d5d5d; stroke:none;" d="M76 85L76 88L77 88L76 85z"/>
<path style="fill:#767676; stroke:none;" d="M95 85L96 86L95 85z"/>
<path style="fill:#141414; stroke:none;" d="M126 85L126 88L135 88L126 85z"/>
<path style="fill:#cacaca; stroke:none;" d="M132.667 85.3333L133.333 85.6667L132.667 85.3333z"/>
<path style="fill:#939393; stroke:none;" d="M57.3333 87.6667L57.6667 88.3333L57.3333 87.6667z"/>
<path style="fill:#8f8f8f; stroke:none;" d="M92 87L93 88L92 87z"/>
<path style="fill:#747474; stroke:none;" d="M108 88L109 89L108 88z"/>
<path style="fill:#9d9d9d; stroke:none;" d="M126 88L126 89L135 89L126 88z"/>
<path style="fill:#6b6b6b; stroke:none;" d="M72 90L72 94L73 94L72 90z"/>
<path style="fill:#616161; stroke:none;" d="M75 90L78 93L75 90z"/>
<path style="fill:#e1e1e1; stroke:none;" d="M77.3333 90.6667L77.6667 91.3333L77.3333 90.6667z"/>
<path style="fill:#979797; stroke:none;" d="M65 91L66 92L65 91z"/>
<path style="fill:#8b8b8b; stroke:none;" d="M106.667 91.3333L107.333 91.6667L106.667 91.3333z"/>
<path style="fill:#eeeeee; stroke:none;" d="M62 93C64.5207 100.151 58.6149 99.9957 53 100L53 101L80 101L80 99C72.6896 99.5769 66.3082 101.463 66 92L62 93z"/>
<path style="fill:#7c7c7c; stroke:none;" d="M66 92L66 99L67 99L66 92z"/>
<path style="fill:#b5b5b5; stroke:none;" d="M110 94L110 95L113 95L110 94z"/>
<path style="fill:#f0f0f0; stroke:none;" d="M117 96L117 97L129 97L129 108L132 108L132 97C136.102 97 143.96 98.8528 145 94L117 96z"/>
<path style="fill:#898989; stroke:none;" d="M63 95L63 99L64 99L63 95z"/>
<path style="fill:#afafaf; stroke:none;" d="M85 95L85 96L106 96L85 95z"/>
<path style="fill:#efefef; stroke:none;" d="M85 96L85 97L97 97L97 108L100 108L100 97L113 97L113 95L85 96z"/>
<path style="fill:#aeaeae; stroke:none;" d="M117 95L117 96L138 96L117 95z"/>
<path style="fill:#707070; stroke:none;" d="M84.3333 96.6667L84.6667 97.3333L84.3333 96.6667z"/>
<path style="fill:#cbcbcb; stroke:none;" d="M85 97L85 98L97 98L85 97z"/>
<path style="fill:#c1c1c1; stroke:none;" d="M100 97L100 98L112 98L100 97z"/>
<path style="fill:#cbcbcb; stroke:none;" d="M117 97L117 98L129 98L117 97z"/>
<path style="fill:#c4c4c4; stroke:none;" d="M132 97L132 98L144 98L132 97z"/>
<path style="fill:#616161; stroke:none;" d="M89 100L93 100C91.4444 98.1871 90.5556 98.1871 89 100z"/>
<path style="fill:#404040; stroke:none;" d="M100 98L100 107L101 107L100 98z"/>
<path style="fill:#3e3e3e; stroke:none;" d="M104 98L104 99L108 100L104 98z"/>
<path style="fill:#626262; stroke:none;" d="M121 100L125 100C123.444 98.1871 122.556 98.1871 121 100z"/>
<path style="fill:#8f8f8f; stroke:none;" d="M132 98L132 107L133 107L132 98z"/>
<path style="fill:#b3b3b3; stroke:none;" d="M53 99L53 100L63 100L53 99z"/>
<path style="fill:#4c4c4c; stroke:none;" d="M67 99L67 100L76 100L67 99z"/>
<path style="fill:#b1b1b1; stroke:none;" d="M80 99C73.9347 103.595 60.4503 101 53 101L53 102C57.1547 102 81.6987 103.506 80 99z"/>
<path style="fill:#c0c0c0; stroke:none;" d="M90.6667 99.3333L91.3333 99.6667L90.6667 99.3333z"/>
<path style="fill:#d7d7d7; stroke:none;" d="M104 99L104 100L107 100L104 99z"/>
<path style="fill:#c5c5c5; stroke:none;" d="M122.667 99.3333L123.333 99.6667L122.667 99.3333z"/>
<path style="fill:#d1d1d1; stroke:none;" d="M136 99L136 100L139 100L136 99z"/>
<path style="fill:#575757; stroke:none;" d="M73 102L73 103L77 103L73 102z"/>
<path style="fill:#686868; stroke:none;" d="M63.6667 103.333L64.3333 103.667L63.6667 103.333z"/>
<path style="fill:#bcbcbc; stroke:none;" d="M73 103L73 104L77 104L73 103z"/>
<path style="fill:#828282; stroke:none;" d="M96 103L96 107L97 107L96 103z"/>
<path style="fill:#b8b8b8; stroke:none;" d="M148.333 104.667L148.667 105.333L148.333 104.667z"/>
<path style="fill:#757575; stroke:none;" d="M50 106L51 107L50 106z"/>
<path style="fill:#7e7e7e; stroke:none;" d="M147 106L148 107L147 106z"/>
<path style="fill:#969696; stroke:none;" d="M144 109L145 110L144 109z"/>
<path style="fill:#606060; stroke:none;" d="M56 110L56 111L142 111L115 110L56 110z"/>
<path style="fill:#9e9e9e; stroke:none;" d="M34 119L34 120L38 120L38 121L34 121L34 122L39 123L39 119L34 119z"/>
<path style="fill:#a4a4a4; stroke:none;" d="M42.6667 119.333L43.3333 119.667L42.6667 119.333z"/>
<path style="fill:#6d6d6d; stroke:none;" d="M46 119L46 124L47 124L46 119z"/>
<path style="fill:#a0a0a0; stroke:none;" d="M52 119L52 122L57 120L52 119z"/>
<path style="fill:#a1a1a1; stroke:none;" d="M64 119L64 123L63 123L62 120L59 121L59 123L64 126L65 126L64 119z"/>
<path style="fill:#a3a3a3; stroke:none;" d="M67 122L71 120L67 122z"/>
<path style="fill:#b6b6b6; stroke:none;" d="M75 119L75 120L79 120L79 121L76 121L76 122L80 122L80 119L75 119z"/>
<path style="fill:#505050; stroke:none;" d="M85 119L85 122L86 122L85 119z"/>
<path style="fill:#d0d0d0; stroke:none;" d="M92 119L97 125L92 119z"/>
<path style="fill:#838383; stroke:none;" d="M93 119L94 123L95 123L96 119L93 119z"/>
<path style="fill:#848484; stroke:none;" d="M97 119L97 126L98 126L97 119z"/>
<path style="fill:#a0a0a0; stroke:none;" d="M100 123L105 120L105 124L106 124L106 119C102.59 119.263 101.099 119.679 100 123z"/>
<path style="fill:#a2a2a2; stroke:none;" d="M108 119L108 120L111 120L108 119z"/>
<path style="fill:#9a9a9a; stroke:none;" d="M113 119L113 126L114 126L113 119z"/>
<path style="fill:#a0a0a0; stroke:none;" d="M119 119L118 121L119 126L123 126L123 125L120 125L120 124L124 123L123 119L119 119z"/>
<path style="fill:#cecece; stroke:none;" d="M130 119L127 124L131 126L132 126L132 119L130 119z"/>
<path style="fill:#b1b1b1; stroke:none;" d="M136 119L136 120L139 120L139 121L136 121L136 122L141 123L136 119z"/>
<path style="fill:#6c6c6c; stroke:none;" d="M141 119L141 126L142 126L141 119z"/>
<path style="fill:#a0a0a0; stroke:none;" d="M144 119L144 122L149 122L149 119L144 119z"/>
<path style="fill:#8a8a8a; stroke:none;" d="M156 119L156 126L157 126L156 119z"/>
<path style="fill:#727272; stroke:none;" d="M164 119L164 126L165 126L164 119z"/>
<path style="fill:#a0a0a0; stroke:none;" d="M41.3333 120.667L41.6667 121.333L41.3333 120.667z"/>
<path style="fill:#ededed; stroke:none;" d="M42 120L42 122L44 122L44 120L42 120z"/>
<path style="fill:#5b5b5b; stroke:none;" d="M44.3333 120.667L44.6667 121.333L44.3333 120.667z"/>
<path style="fill:#f1f1f1; stroke:none;" d="M68 122L71 120L68 122z"/>
<path style="fill:#afafaf; stroke:none;" d="M71 120L71 122L73 122L73 120L71 120z"/>
<path style="fill:#a7a7a7; stroke:none;" d="M84 124L87 126L88 126L91 124L90 120L84 124z"/>
<path style="fill:#eeeeee; stroke:none;" d="M102 120L103 124L105 120L102 120z"/>
<path style="fill:#bbbbbb; stroke:none;" d="M111 120L110 123L111 120z"/>
<path style="fill:#868686; stroke:none;" d="M126 123L127 123L130 121C127.588 119.645 126.568 120.351 126 123z"/>
<path style="fill:#ededed; stroke:none;" d="M145 120L145 121L148 121L145 120z"/>
<path style="fill:#afafaf; stroke:none;" d="M152 120L152 124L156 124L156 123L152 120z"/>
<path style="fill:#e5e5e5; stroke:none;" d="M52 122L52 123L56 123L52 122z"/>
<path style="fill:#b2b2b2; stroke:none;" d="M55 121C55 123.854 53.3142 122.67 51 122L54 126L55 126L55 121z"/>
<path style="fill:#707070; stroke:none;" d="M75.3333 121.667L75.6667 122.333L75.3333 121.667z"/>
<path style="fill:#787878; stroke:none;" d="M42 122L42 125L43 125L44 122L42 122z"/>
<path style="fill:#f3f3f3; stroke:none;" d="M60.6667 122.333L61.3333 122.667L60.6667 122.333z"/>
<path style="fill:#868686; stroke:none;" d="M68 122L68 123L72 123L68 122z"/>
<path style="fill:#6e6e6e; stroke:none;" d="M102 122L100 124L100 125L106 125L106 124L104 122L102 122z"/>
<path style="fill:#c8c8c8; stroke:none;" d="M33 126L40 126L39 123L33 126z"/>
<path style="fill:#707070; stroke:none;" d="M77.3333 123.667L77.6667 124.333L77.3333 123.667z"/>
<path style="fill:#adadad; stroke:none;" d="M143.667 123.333L144.333 123.667L143.667 123.333z"/>
<path style="fill:#717171; stroke:none;" d="M145 123L145 126L146 126L145 123z"/>
<path style="fill:#a8a8a8; stroke:none;" d="M146 123L146 124L149 126L150 123L146 123z"/>
<path style="fill:#8c8c8c; stroke:none;" d="M92 124L93 125L92 124z"/>
<path style="fill:#757575; stroke:none;" d="M108 124L109 125L108 124z"/>
<path style="fill:#929292; stroke:none;" d="M127 124L127 126L131 126L131 124L127 124z"/>
<path style="fill:#959595; stroke:none;" d="M160 124L160 125L163 125L160 124z"/>
<path style="fill:#a7a7a7; stroke:none;" d="M42 125L42 126L47 126L42 125z"/>
</svg>
